<svg id="ei5ToYUkL8a1" xmlns="http://www.w3.org/2000/svg" xmlns:xlink="http://www.w3.org/1999/xlink" viewBox="0 0 800 600" shape-rendering="geometricPrecision" text-rendering="geometricPrecision" project-id="fbb996f243c44734a1549189e94f0c2d" export-id="dff02f0cbd9a4ea983107951a643428d" cached="false"><ellipse rx="100" ry="15" transform="matrix(.8 0 0 1 199.74428 350)" fill="#d29672" stroke-width="0"/><path d="M180,260v90h-20" transform="matrix(-1 0 0 1 400 0)" fill="none" stroke="#000" stroke-width="5" stroke-linecap="round" stroke-linejoin="round"/><path d="M180,260v90h-20" fill="none" stroke="#000" stroke-width="5" stroke-linecap="round" stroke-linejoin="round"/><g transform="matrix(-1 0 0 1 398.962036 0)"><path d="M270,240q28.96204,30,28.96204,50" fill="none" stroke="#000" stroke-width="5" stroke-linecap="round" stroke-linejoin="round"/><path d="M284.48102,280l14.48102-10" transform="translate(-3.96204 6)" fill="none" stroke="#000" stroke-width="5" stroke-linecap="round" stroke-linejoin="round"/></g><ellipse rx="40" ry="40" transform="translate(327.75949 173.50412)" fill="none" stroke="#fefefe" stroke-width="26"/><path d="M130,90c0-2.79818,0-10,10-10c29.509346.00001,19.6611,53.50412,50,53.50412s31.1245-62.938224,60-52.938224c.516529,0,10.812061-.565896,10,9.434104-2.461756,30.314917-36.86292,60-70,60s-60-26.86292-60-60Z" transform="matrix(.978846 0.204597-.204597 0.978846 26.833374-22.935873)" stroke-width="0"/><path d="M100,200c0-4.91114-.68393-9.73959,0-14.46122-.67365-2.05786,0-4.25577,0-6.53878v-78c0-11.59798,9.40202-21,21-21h158c11.59798,0,21,9.40202,21,21v78c0,2.283-.36431,4.48091-1.03796,6.53878C299.64597,190.26041,300,195.08887,300,200c0,55.22847-44.77153,100-100,100s-100-44.77153-100-100Z" transform="matrix(1 0 0 0.909091 2.688003 26.706805)" fill="#fff" stroke-width="0"/><g><ellipse rx="2.5" ry="5" transform="translate(162.5 165)" stroke-width="0"/><ellipse rx="2.5" ry="5" transform="translate(162.5 165)" stroke-width="0"/><ellipse rx="2.5" ry="5" transform="translate(162.5 165)" stroke-width="0"/><ellipse rx="2.5" ry="5" transform="translate(162.5 165)" stroke-width="0"/><ellipse rx="2.5" ry="5" transform="translate(182.5 165)" stroke-width="0"/><path d="" fill="none" stroke="#3f5787" stroke-width="1.6"/><path d="M160,180c6.666667,7.576861,13.333333,9.695962,20,0" transform="translate(2.5-6.49588)" fill="none" stroke="#0b0b0b" stroke-width="3" stroke-linecap="round"/><ellipse rx="5" ry="5" transform="translate(145 170)" fill="#fea9f3" stroke-width="0"/><ellipse rx="5" ry="5" transform="translate(195 170)" fill="#fea9f3" stroke-width="0"/></g><path d="" fill="none" stroke="#3f5787" stroke-width="1.6"/><g><path d="M270,240q28.96204,30,28.96204,50" fill="none" stroke="#000" stroke-width="5" stroke-linecap="round" stroke-linejoin="round"/><path d="M284.48102,280l14.48102-10" transform="translate(-3.96204 6)" fill="none" stroke="#000" stroke-width="5" stroke-linecap="round" stroke-linejoin="round"/></g><g><path d="M270,240q28.96204,30,28.96204,50" fill="none" stroke="#000" stroke-width="5" stroke-linecap="round" stroke-linejoin="round"/><path d="M284.48102,280l14.48102-10" transform="translate(-3.96204 6)" fill="none" stroke="#000" stroke-width="5" stroke-linecap="round" stroke-linejoin="round"/></g><g><path d="M270,240q28.96204,30,28.96204,50" fill="none" stroke="#000" stroke-width="5" stroke-linecap="round" stroke-linejoin="round"/><path d="M284.48102,280l14.48102-10" transform="translate(-3.96204 6)" fill="none" stroke="#000" stroke-width="5" stroke-linecap="round" stroke-linejoin="round"/></g><ellipse rx="5" ry="5" transform="matrix(.952556-.304363 0.304363 0.952556 141.216519 75.21065)" stroke-width="0"/></svg>
